# xmcd
#
# Track frame offsets: 
#        150
#        21150
#        47400
#        79050
#        95400
#        116493
#        129496
#        151846
#        179446
#        199696
#        220396
#        250546
#        271696
#        308221
#
# Disc length: 4336 seconds
#
# Revision: 0
# Processed by: cddbd v1.5.2PL0 Copyright (c) Steve Scherf et al.
# Submitted via: ExactAudioCopy v0.95a5
#
DISCID=b010ee0e
DTITLE=Jocelyn Brown - Unreleased
DYEAR=2006
DGENRE=Soul
TTITLE0=She'd Called
TTITLE1=Buttaflies
TTITLE2=Find Someone To Love
TTITLE3=That's Just Me
TTITLE4=Not Yet
TTITLE5=It's You
TTITLE6=Real Thing
TTITLE7=Hey You Over There
TTITLE8=Forever
TTITLE9=Don't Make A Mistake
TTITLE10=Sweet Fine Baby
TTITLE11=Vacation Time
TTITLE12=I Love You
TTITLE13=I Will Wait For You
EXTD=
EXTT0=
EXTT1=
EXTT2=
EXTT3=
EXTT4=
EXTT5=
EXTT6=
EXTT7=
EXTT8=
EXTT9=
EXTT10=
EXTT11=
EXTT12=
EXTT13=
PLAYORDER=
